# xmcd CD database file
# Copyright (C) 1993-1998 Ti Kan
#
# Track frame offsets:
#  200
#  21282
#  43470
#  64605
#  88302
#  119560
#  140200
#  157975
#  179635
#  196347
#
# Disc length: 2958 seconds
#
# Revision: 1
# Processed by: cddbd v1.4b41PL1 Copyright (c) Steve Scherf et al.
# Submitted via: CDWizzard Release:4.35
#
DISCID=9a0b8c0a
DTITLE=Commissioned - Will You Be Ready
DYEAR=1900
DGENRE=
TTITLE0=So Good To Know (The Savior)
TTITLE1=Waiting To Hear From You
TTITLE2=Don't Worry
TTITLE3=Same Me Now
TTITLE4=Will You Be Ready
TTITLE5=Lord Jesus Help Me (Help Somebody Else)
TTITLE6=Let's Not Crucify Him Again
TTITLE7=More Than You'll Ever Know
TTITLE8=Take Your Burdens (To The Lord)
TTITLE9=A Praise For You
EXTD=
EXTT0=
EXTT1=
EXTT2=
EXTT3=
EXTT4=
EXTT5=
EXTT6=
EXTT7=
EXTT8=
EXTT9=
PLAYORDER=
